<svg xmlns="http://www.w3.org/2000/svg" viewBox="0 0 512 512">
  <defs>
    <linearGradient id="grad" x1="0%" y1="0%" x2="100%" y2="100%">
      <stop offset="0%" style="stop-color:#f472b6;stop-opacity:1" />
      <stop offset="100%" style="stop-color:#a855f7;stop-opacity:1" />
    </linearGradient>
  </defs>
  <rect width="512" height="512" rx="102" fill="url(#grad)"/>
  <g fill="white">
    <!-- Sparkle icon -->
    <path d="M256 120l20 60 60 20-60 20-20 60-20-60-60-20 60-20z" opacity="0.9"/>
    <path d="M180 240l12 36 36 12-36 12-12 36-12-36-36-12 36-12z" opacity="0.7"/>
    <path d="M320 200l8 24 24 8-24 8-8 24-8-24-24-8 24-8z" opacity="0.6"/>
    <!-- Box -->
    <rect x="156" y="280" width="200" height="140" rx="16" fill="white" opacity="0.95"/>
    <rect x="156" y="280" width="200" height="40" rx="16" fill="white" opacity="0.8"/>
    <line x1="256" y1="280" x2="256" y2="420" stroke="url(#grad)" stroke-width="4" opacity="0.3"/>
    <line x1="156" y1="350" x2="356" y2="350" stroke="url(#grad)" stroke-width="4" opacity="0.3"/>
  </g>
</svg>
